<svg width="96" height="96" viewBox="0 0 96 96" fill="none" xmlns="http://www.w3.org/2000/svg">
<path d="M5 85V77.844H9.3C11.5933 77.844 13.7971 77.4266 15.9113 76.5918C18.0254 75.7569 20.1217 74.2263 22.2 72C24.2783 74.2263 26.3746 75.7569 28.4888 76.5918C30.6029 77.4266 32.8067 77.844 35.1 77.844C37.3217 77.844 39.5433 77.4067 41.765 76.5321C43.9867 75.6575 46.065 74.1468 48 72C50.0783 74.2263 52.1746 75.7569 54.2888 76.5918C56.4029 77.4266 58.6067 77.844 60.9 77.844C63.1217 77.844 65.3433 77.4067 67.565 76.5321C69.7867 75.6575 71.865 74.1468 73.8 72C75.735 74.1468 77.8133 75.6575 80.035 76.5321C82.2567 77.4067 84.4783 77.844 86.7 77.844H91V85H86.7C84.6217 85 82.4896 84.6621 80.3038 83.9862C78.1179 83.3104 75.95 82.0581 73.8 80.2294C71.65 82.0581 69.4821 83.3104 67.2963 83.9862C65.1104 84.6621 62.9783 85 60.9 85C58.8217 85 56.6896 84.6621 54.5038 83.9862C52.3179 83.3104 50.15 82.0581 48 80.2294C45.85 82.0581 43.6821 83.3104 41.4963 83.9862C39.3104 84.6621 37.1783 85 35.1 85C33.0217 85 30.8896 84.6621 28.7038 83.9862C26.5179 83.3104 24.35 82.0581 22.2 80.2294C20.05 82.0581 17.8821 83.3104 15.6963 83.9862C13.5104 84.6621 11.3783 85 9.3 85H5Z" fill="#4068CE"/>
<path d="M5 94V87.3945H9.3C11.5933 87.3945 13.7971 87.0092 15.9113 86.2385C18.0254 85.4679 20.1217 84.055 22.2 82C24.2783 84.055 26.3746 85.4679 28.4888 86.2385C30.6029 87.0092 32.8067 87.3945 35.1 87.3945C37.3217 87.3945 39.5433 86.9908 41.765 86.1835C43.9867 85.3762 46.065 83.9817 48 82C50.0783 84.055 52.1746 85.4679 54.2888 86.2385C56.4029 87.0092 58.6067 87.3945 60.9 87.3945C63.1217 87.3945 65.3433 86.9908 67.565 86.1835C69.7867 85.3762 71.865 83.9817 73.8 82C75.735 83.9817 77.8133 85.3762 80.035 86.1835C82.2567 86.9908 84.4783 87.3945 86.7 87.3945H91V94H86.7C84.6217 94 82.4896 93.6881 80.3038 93.0642C78.1179 92.4404 75.95 91.2844 73.8 89.5963C71.65 91.2844 69.4821 92.4404 67.2963 93.0642C65.1104 93.6881 62.9783 94 60.9 94C58.8217 94 56.6896 93.6881 54.5038 93.0642C52.3179 92.4404 50.15 91.2844 48 89.5963C45.85 91.2844 43.6821 92.4404 41.4963 93.0642C39.3104 93.6881 37.1783 94 35.1 94C33.0217 94 30.8896 93.6881 28.7038 93.0642C26.5179 92.4404 24.35 91.2844 22.2 89.5963C20.05 91.2844 17.8821 92.4404 15.6963 93.0642C13.5104 93.6881 11.3783 94 9.3 94H5Z" fill="#4068CE"/>
<path d="M5 74.0002L19.1001 45.1002C19.6248 44.1002 20.3728 43.3002 21.3441 42.7002C22.3148 42.1002 23.3641 41.8002 24.4921 41.8002C25.6688 41.8002 26.7478 42.1335 27.7291 42.8002C28.7098 43.4669 29.4668 44.3669 30.0001 45.5002L33.7001 54.3002C34.1001 55.1669 34.8104 55.5645 35.8311 55.4932C36.8524 55.4219 37.5088 54.9575 37.8001 54.1002L46.7001 24.3002C47.6334 21.3002 49.3668 18.8669 51.9001 17.0002C54.4334 15.1335 57.2824 14.2002 60.4471 14.2002C63.5491 14.2002 66.3501 15.1002 68.8501 16.9002C71.3501 18.7002 73.1001 21.1002 74.1001 24.1002L91 74.0002H85.1001L68.4001 26.0002C67.8001 24.2669 66.7668 22.8669 65.3001 21.8002C63.8334 20.7335 62.2001 20.2002 60.4001 20.2002C58.6001 20.2002 56.9668 20.7335 55.5001 21.8002C54.0334 22.8669 53.0334 24.2669 52.5001 26.0002L43.6001 55.8002C43.0668 57.5335 42.0668 58.9335 40.6001 60.0002C39.1334 61.0669 37.4878 61.6002 35.6631 61.6002C34.0211 61.6002 32.5168 61.1502 31.1501 60.2502C29.7834 59.3502 28.8001 58.1335 28.2001 56.6002L24.3001 47.4002L11.2001 74.0002H5Z" fill="#697814"/>
<path d="M23.25 32.6C20.15 32.6 17.5 31.5 15.3 29.3C13.1 27.1 12 24.4333 12 21.3C12 18.2333 13.0987 15.5833 15.296 13.35C17.4933 11.1167 20.1613 10 23.3 10C26.3667 10 29.0167 11.1167 31.25 13.35C33.4833 15.5833 34.6 18.2333 34.6 21.3C34.6 24.4333 33.4833 27.1 31.25 29.3C29.0167 31.5 26.35 32.6 23.25 32.6ZM23.3 26.6C24.7667 26.6 26.0167 26.0957 27.05 25.087C28.0833 24.0783 28.6 22.8283 28.6 21.337C28.6 19.8457 28.0833 18.5833 27.05 17.55C26.0167 16.5167 24.7667 16 23.3 16C21.8333 16 20.5833 16.511 19.55 17.533C18.5167 18.5557 18 19.8223 18 21.333C18 22.8443 18.5167 24.1 19.55 25.1C20.5833 26.1 21.8333 26.6 23.3 26.6Z" fill="#F4B000"/>
</svg>


